<svg width="21" height="22" viewBox="0 0 21 22" fill="none" xmlns="http://www.w3.org/2000/svg">
<path fill-rule="evenodd" clip-rule="evenodd" d="M14.5137 20.5H6.16592C3.09955 20.5 0.747152 19.3924 1.41534 14.9348L2.19338 8.89357C2.60528 6.66931 4.02404 5.81805 5.26889 5.81805H15.4474C16.7105 5.81805 18.0469 6.73339 18.5229 8.89357L19.3009 14.9348C19.8684 18.889 17.5801 20.5 14.5137 20.5Z" stroke="#98A2B3" stroke-width="2" stroke-linecap="round" stroke-linejoin="round"/>
<path d="M14.651 5.5984C14.651 3.21232 12.7167 1.27799 10.3307 1.27799C9.18168 1.27316 8.07806 1.72619 7.26388 2.53695C6.44969 3.3477 5.992 4.44939 5.992 5.5984" stroke="#98A2B3" stroke-width="2" stroke-linecap="round" stroke-linejoin="round"/>
<path d="M13.2963 10.1018H13.2506" stroke="#98A2B3" stroke-width="2" stroke-linecap="round" stroke-linejoin="round"/>
<path d="M7.46569 10.1018H7.41992" stroke="#98A2B3" stroke-width="2" stroke-linecap="round" stroke-linejoin="round"/>
</svg>
