<svg width="48" height="48" viewBox="0 0 48 48" fill="none" xmlns="http://www.w3.org/2000/svg">
<g opacity="0.4">
<path d="M34.8027 11.0762C35.6277 10.2515 35.5787 8.88948 34.6115 8.23716C31.5813 6.19322 27.9299 5 23.9999 5C20.0697 5 16.4183 6.1933 13.388 8.23736C12.421 8.8897 12.3719 10.2517 13.1969 11.0764L16.9934 14.8716C17.0099 14.8882 17.026 14.905 17.0416 14.9221L18.2797 16.1603C18.9599 16.8405 20.0201 16.9131 20.9085 16.5443C21.8605 16.1492 22.9045 15.9312 23.9995 15.9312C25.0945 15.9312 26.1385 16.1493 27.0905 16.5444C27.9791 16.9132 29.0393 16.8407 29.7195 16.1604L30.9577 14.9222C30.9733 14.9051 30.9895 14.8882 31.0061 14.8716L34.8027 11.0762Z" fill="#FFA236"/>
<path d="M35.2682 39.2996C35.8582 38.8642 35.8896 38.0106 35.3712 37.4922L35.3536 37.4748L29.7188 31.84C29.0386 31.1598 27.9784 31.0872 27.09 31.4558C26.1382 31.8508 25.0942 32.0688 23.9996 32.0688C22.9052 32.0688 21.8618 31.851 20.9102 31.4564C20.022 31.0878 18.962 31.1606 18.2819 31.8406L17.0135 33.1092L16.996 33.1268L13.1982 36.9248C12.3733 37.7496 12.4225 39.1114 13.3896 39.7636C16.4196 41.8072 20.0704 43 24 43C28.2182 43 32.1156 41.6254 35.2682 39.2996Z" fill="#FFA236"/>
</g>
<path d="M37.1007 34.6266C37.9255 35.4516 39.2875 35.4026 39.9399 34.4356C41.9837 31.4054 43.1769 27.754 43.1769 23.824C43.1769 19.8937 41.9837 16.2422 39.9397 13.212C39.2873 12.2449 37.9253 12.1959 37.1005 13.0209L33.3053 16.8173C33.2887 16.8339 33.2719 16.85 33.2549 16.8656L32.0167 18.1037C31.3365 18.7839 31.2639 19.8441 31.6327 20.7326C32.0277 21.6846 32.2459 22.7286 32.2459 23.8234C32.2459 24.9184 32.0277 25.9626 31.6325 26.9146C31.2637 27.803 31.3363 28.8632 32.0165 29.5436L33.2549 30.7818C33.2719 30.7974 33.2887 30.8134 33.3053 30.83L37.1007 34.6266Z" fill="#FFA236"/>
<path d="M8.87732 35.092C9.31262 35.682 10.1663 35.7136 10.6848 35.1952L10.7021 35.1776L16.3369 29.5426C17.0171 28.8624 17.0897 27.8024 16.7211 26.914C16.3261 25.962 16.108 24.9182 16.108 23.8234C16.108 22.7292 16.3259 21.6858 16.7205 20.7342C17.089 19.8458 17.0163 18.786 16.3362 18.1059L15.0677 16.8374L15.05 16.82L11.2521 13.0221C10.4273 12.1973 9.0654 12.2465 8.41318 13.2136C6.36976 16.2435 5.17688 19.8944 5.17688 23.824C5.17688 28.0422 6.55154 31.9394 8.87732 35.092Z" fill="#FFA236"/>
</svg>
