<svg width="48" height="48" viewBox="0 0 48 48" fill="none" xmlns="http://www.w3.org/2000/svg">
<path opacity="0.4" fill-rule="evenodd" clip-rule="evenodd" d="M23.1734 18.9917H15.1133C14.2853 18.9917 13.6133 18.3197 13.6133 17.4917C13.6133 16.6637 14.2853 15.9917 15.1133 15.9917H23.1734C24.0014 15.9917 24.6734 16.6637 24.6734 17.4917C24.6734 18.3197 24.0014 18.9917 23.1734 18.9917ZM18.4013 27.6998H15.1133C14.2853 27.6998 13.6133 27.0298 13.6133 26.1998C13.6133 25.3718 14.2853 24.6998 15.1133 24.6998H18.4013C19.2293 24.6998 19.9013 25.3718 19.9013 26.1998C19.9013 27.0298 19.2293 27.6998 18.4013 27.6998ZM25.9074 33.7558L32.2554 26.8238C33.7516 25.2044 35.9302 24.6104 37.9374 25.045C38.2012 25.102 38.4634 24.9096 38.4634 24.6396V13.9318C38.4634 8.91976 34.3854 4.84377 29.3754 4.84377H15.6013C10.5913 4.84377 6.51733 8.91976 6.51733 13.9318V33.0898C6.51733 38.0998 10.5913 42.1758 15.6013 42.1758H23.7016C23.987 42.1758 24.1816 41.8846 24.099 41.6114C23.8876 40.9118 23.8076 40.1712 23.8894 39.4158L24.0494 37.9318C24.2174 36.3698 24.8614 34.9278 25.9074 33.7558Z" fill="#6315FF"/>
<path fill-rule="evenodd" clip-rule="evenodd" d="M38.3492 32.4482L32.0912 39.2782C31.7972 39.6102 31.3912 39.8342 30.9472 39.9082L29.3592 40.0122L29.5192 38.5202C29.5612 38.1102 29.7332 37.7302 29.9972 37.4322L36.3072 30.5442C36.4012 30.4402 36.5332 30.3882 36.6652 30.3882C36.7832 30.3882 36.9012 30.4302 36.9952 30.5162L38.3272 31.7502C38.5252 31.9342 38.5372 32.2442 38.3492 32.4482ZM40.3672 29.5522L39.0332 28.3162C37.6172 27.0062 35.4032 27.1002 34.0992 28.5122L27.7732 35.4202C27.0752 36.2022 26.6472 37.1602 26.5352 38.1982L26.3772 39.6882C26.2692 40.6682 26.6172 41.6202 27.3332 42.2982C27.9212 42.8542 28.6792 43.1562 29.4752 43.1562C29.6452 43.1562 29.8212 43.1402 29.9972 43.1102L31.4432 42.8662C32.5572 42.6802 33.5852 42.1122 34.3172 41.2882L40.5572 34.4802C41.8612 33.0702 41.7772 30.8582 40.3672 29.5522Z" fill="#6315FF"/>
<path fill-rule="evenodd" clip-rule="evenodd" d="M23.1733 18.9922H15.1133C14.2853 18.9922 13.6133 18.3202 13.6133 17.4922C13.6133 16.6642 14.2853 15.9922 15.1133 15.9922H23.1733C24.0013 15.9922 24.6733 16.6642 24.6733 17.4922C24.6733 18.3202 24.0013 18.9922 23.1733 18.9922ZM18.4013 27.7002H15.1133C14.2853 27.7002 13.6133 27.0302 13.6133 26.2002C13.6133 25.3722 14.2853 24.7002 15.1133 24.7002H18.4013C19.2293 24.7002 19.9013 25.3722 19.9013 26.2002C19.9013 27.0302 19.2293 27.7002 18.4013 27.7002Z" fill="#6315FF"/>
</svg>
