<svg width="266" height="266" viewBox="0 0 266 266" fill="none" xmlns="http://www.w3.org/2000/svg">
<path fill-rule="evenodd" clip-rule="evenodd" d="M246 133C246 195.408 195.408 246 133 246C70.5918 246 20 195.408 20 133C20 70.5918 70.5918 20 133 20C195.408 20 246 70.5918 246 133ZM266 133C266 206.454 206.454 266 133 266C59.5461 266 0 206.454 0 133C0 59.5461 59.5461 0 133 0C206.454 0 266 59.5461 266 133ZM105.133 202.025C113.63 206.008 123.428 208 134.528 208C145.628 208 155.22 206.146 163.306 202.437C171.528 198.591 177.831 193.371 182.217 186.777C186.739 180.047 189 172.286 189 163.495C189 154.703 186.876 147.492 182.628 141.86C178.38 136.228 172.419 131.695 164.744 128.261C157.207 124.827 148.3 122.011 138.022 119.813L133.294 118.783C127.539 117.547 122.811 116.104 119.111 114.456C115.411 112.808 112.602 110.747 110.683 108.275C108.902 105.802 108.011 102.78 108.011 99.2088C108.011 93.8516 109.93 89.6621 113.767 86.6401C117.741 83.4808 123.839 81.9011 132.061 81.9011C137.543 81.9011 142.27 82.7253 146.244 84.3736C150.219 85.8846 153.233 88.3571 155.289 91.7912C157.481 95.0879 158.578 99.4835 158.578 104.978V111.159H185.3V104.978C185.3 94.5385 182.97 85.8846 178.311 79.0165C173.789 72.011 167.485 66.7912 159.4 63.3571C151.452 59.7857 142.339 58 132.061 58C121.783 58 112.807 59.717 105.133 63.1511C97.5963 66.4478 91.7037 71.2555 87.4556 77.5742C83.3444 83.7555 81.2889 91.2418 81.2889 100.033C81.2889 108.824 83.1389 115.967 86.8389 121.462C90.6759 126.956 96.0889 131.42 103.078 134.854C110.204 138.151 118.7 140.898 128.567 143.096L133.294 144.126C139.461 145.5 144.669 147.011 148.917 148.659C153.302 150.17 156.591 152.162 158.783 154.635C161.113 157.107 162.278 160.335 162.278 164.319C162.278 170.088 159.948 174.827 155.289 178.536C150.767 182.244 143.846 184.099 134.528 184.099C125.346 184.099 118.083 181.97 112.739 177.712C107.394 173.316 104.722 166.791 104.722 158.137V152.368H78V158.137C78 168.577 80.3981 177.505 85.1944 184.923C89.9907 192.341 96.637 198.041 105.133 202.025Z" fill="url(#paint0_linear_401_1389)"/>
<defs>
<linearGradient id="paint0_linear_401_1389" x1="29.4999" y1="219.5" x2="242.874" y2="63.781" gradientUnits="userSpaceOnUse">
<stop stop-color="#6315FF"/>
<stop offset="0.535" stop-color="#FF1196"/>
<stop offset="1" stop-color="#FFA236"/>
</linearGradient>
</defs>
</svg>
